<svg xmlns="http://www.w3.org/2000/svg" version="1.0" preserveAspectRatio="xMidYMid meet" viewBox="15.12 61 434.88 140.03">
<metadata>
Created by potrace 1.16, written by Peter Selinger 2001-2019
</metadata>
<g transform="translate(0.000000,259.000000) scale(0.100000,-0.100000)" fill="#000000" stroke="none">
<path d="M3240 1971 c-50 -14 -50 -11 -50 -697 0 -634 0 -642 21 -668 l20 -26 518 0 c611 0 554 -13 559 131 l4 89 69 0 c61 0 73 3 94 25 25 24 25 24 25 234 0 115 -3 217 -6 226 -11 27 -60 45 -124 45 l-60 0 0 138 -1 137 -182 188 -183 187 -339 -1 c-187 -1 -351 -4 -365 -8z m642 -221 c3 -137 3 -140 31 -167 27 -28 30 -28 167 -31 l140 -4 0 -109 0 -109 -376 0 c-383 0 -402 -2 -431 -39 -9 -11 -12 -77 -13 -229 l0 -213 25 -24 24 -25 386 0 386 0 -3 -67 -3 -68 -465 0 -465 0 -3 613 -2 612 299 0 299 0 4 -140z m211 -118 c-59 -1 -113 0 -120 2 -10 4 -13 35 -13 123 l0 118 120 -120 120 -120 -107 -3z m-368 -446 c33 -14 61 -49 51 -65 -12 -19 -58 -19 -77 0 -25 25 -44 24 -70 -2 -17 -17 -20 -30 -16 -66 5 -50 19 -65 56 -61 19 2 38 21 47 46 0 1 15 -3 32 -9 41 -14 41 -39 1 -73 -24 -20 -41 -26 -80 -26 -28 0 -63 7 -78 15 -40 20 -64 76 -59 137 10 96 97 144 193 104z m297 -16 c29 -36 23 -50 -21 -50 -26 0 -41 5 -45 16 -3 9 -15 14 -28 12 -41 -5 -25 -30 29 -47 70 -21 93 -42 93 -85 0 -53 -45 -86 -119 -86 -65 0 -94 16 -109 60 l-11 30 39 0 c29 0 42 -5 50 -21 15 -27 65 -23 65 6 0 15 -12 24 -45 35 -66 22 -87 36 -94 66 -8 31 14 70 47 84 12 6 46 8 76 6 42 -2 59 -8 73 -26z m161 -70 l29 -95 32 95 31 95 38 3 c20 2 37 0 37 -5 0 -4 -21 -66 -47 -136 l-46 -128 -45 3 -44 3 -43 110 c-65 170 -64 157 -14 153 l43 -3 29 -95z"/>
<path d="M218 1955 c-14 -8 -36 -30 -47 -49 -21 -34 -21 -38 -19 -639 l3 -605 25 -27 c54 -58 15 -55 842 -55 744 0 764 1 796 20 18 11 41 34 52 52 19 32 20 52 20 621 0 644 2 618 -60 671 l-32 26 -776 0 c-658 -1 -781 -3 -804 -15z m1552 -114 c6 -13 10 -210 10 -570 0 -486 -2 -551 -16 -565 -14 -14 -95 -16 -740 -16 -481 0 -732 3 -745 10 -18 10 -19 27 -19 573 0 425 3 566 12 575 9 9 189 12 750 12 719 0 738 0 748 -19z"/>
<path d="M470 1717 c-119 -63 -117 -241 3 -304 47 -25 125 -22 169 5 67 42 101 127 78 197 -36 109 -149 155 -250 102z"/>
<path d="M1045 1360 l-230 -230 -72 72 -73 73 -145 -145 -145 -145 0 -87 0 -88 640 0 640 0 0 203 0 202 -188 188 c-103 103 -189 187 -192 187 -3 0 -109 -103 -235 -230z"/>
<path d="M2619 1651 c-21 -22 -29 -39 -29 -65 0 -31 11 -48 81 -124 l81 -87 -338 -5 c-187 -3 -340 -7 -341 -8 -36 -37 -43 -50 -43 -85 0 -29 7 -45 29 -68 l29 -29 332 0 331 0 -80 -90 c-68 -75 -81 -95 -81 -124 0 -67 69 -113 125 -83 44 22 342 345 348 375 3 15 -1 40 -8 57 -8 16 -87 105 -177 198 -147 150 -166 167 -196 167 -24 0 -42 -9 -63 -29z"/>
</g>
</svg>